<svg xmlns="http://www.w3.org/2000/svg" width="1200" height="760" viewBox="0 0 1200 760" role="img" aria-labelledby="title desc">
<title>Materials response plot slot</title><desc>Use for characterization trends, process comparisons, or simulation outputs.</desc>
<rect width="1200" height="760" fill="#f8fbfc"/>
<rect x="46" y="46" width="1108" height="668" rx="32" fill="#fff" stroke="#d8e2e7" stroke-width="2"/>
<text x="76" y="108" fill="#0f172a" font-family="Inter, Arial, sans-serif" font-size="32" font-weight="800">Materials response plot slot</text>
<text x="76" y="150" fill="#64748b" font-family="Inter, Arial, sans-serif" font-size="20">Use for characterization trends, process comparisons, or simulation outputs.</text>
<g transform="translate(90,220)">
<rect x="0" y="0" width="980" height="360" rx="18" fill="#f8fbfc" stroke="#e2e8f0"/>
<g stroke="#d8e2e7" stroke-width="1"><line x1="80" y1="0" x2="80" y2="360"/><line x1="170" y1="0" x2="170" y2="360"/><line x1="260" y1="0" x2="260" y2="360"/><line x1="350" y1="0" x2="350" y2="360"/><line x1="440" y1="0" x2="440" y2="360"/><line x1="530" y1="0" x2="530" y2="360"/><line x1="620" y1="0" x2="620" y2="360"/><line x1="710" y1="0" x2="710" y2="360"/><line x1="800" y1="0" x2="800" y2="360"/><line x1="890" y1="0" x2="890" y2="360"/><line x1="0" y1="60" x2="980" y2="60"/><line x1="0" y1="120" x2="980" y2="120"/><line x1="0" y1="180" x2="980" y2="180"/><line x1="0" y1="240" x2="980" y2="240"/><line x1="0" y1="300" x2="980" y2="300"/></g>
<polyline points="40,310 150,260 250,218 360,195 470,175 580,155 690,142 800,132 920,126" fill="none" stroke="#08708b" stroke-width="8" stroke-linecap="round" stroke-linejoin="round"/>
<polyline points="40,330 150,302 250,270 360,254 470,246 580,238 690,232 800,228 920,224" fill="none" stroke="#0f172a" stroke-width="5" opacity="0.65" stroke-linecap="round" stroke-linejoin="round"/>
<text x="20" y="-18" fill="#0f172a" font-family="Inter, Arial, sans-serif" font-size="18" font-weight="700">measured response vs. run time</text>
<text x="760" y="338" fill="#64748b" font-family="Inter, Arial, sans-serif" font-size="16">time / condition index</text>
</g>
<text x="76" y="676" fill="#08708b" font-family="Inter, Arial, sans-serif" font-size="18" font-weight="800" letter-spacing="2">ARTIFACT SLOT</text>
<line x1="76" y1="690" x2="1124" y2="690" stroke="#08708b" stroke-width="3" opacity="0.45"/>
</svg>