<svg xmlns="http://www.w3.org/2000/svg" viewBox="0 0 920 430" role="img" aria-labelledby="title desc">
<title id="title">Representative normalized droplet radius trace</title>
<desc id="desc">Stylized plot comparing glass-like control, porous boundary condition, and target repeatability band over normalized time.</desc>
<defs>
<style>
.bg{fill:#fbfefe}.panel{fill:#fff;stroke:#d9e7e8;stroke-width:1.4}.grid{stroke:#e6f0f1;stroke-width:1}.axis{stroke:#234347;stroke-width:2;opacity:.45}.label{font:700 13px ui-monospace,SFMono-Regular,Menlo,monospace;letter-spacing:.08em;fill:#365a60;text-transform:uppercase}.tick{font:600 12px Inter,Arial,sans-serif;fill:#789094}.control{fill:none;stroke:#d4a72c;stroke-width:5;stroke-linecap:round}.porous{fill:none;stroke:#08708b;stroke-width:5;stroke-linecap:round}.target{fill:none;stroke:#4c936c;stroke-width:5;stroke-linecap:round}.band{fill:#4c936c;opacity:.10}.legend{font:700 14px Inter,Arial,sans-serif;fill:#315357}.note{font:500 14px Inter,Arial,sans-serif;fill:#667e82}
</style>
</defs>
<rect class="bg" width="920" height="430" rx="30"/>
<rect class="panel" x="46" y="42" width="828" height="318" rx="26"/>
<g opacity="1">
<path class="grid" d="M126 88H814M126 144H814M126 200H814M126 256H814M126 312H814"/>
<path class="grid" d="M196 72V318M294 72V318M392 72V318M490 72V318M588 72V318M686 72V318M784 72V318"/>
<path class="axis" d="M126 318H814M126 318V72"/>
</g>
<path class="band" d="M126 242 C230 238 325 229 430 212 C535 195 630 178 814 150 L814 182 C635 207 528 222 430 236 C320 252 224 260 126 260 Z"/>
<path class="control" d="M126 265 C216 252 268 232 314 200 C370 161 458 122 570 115 C676 108 750 126 814 142"/>
<path class="porous" d="M126 246 C220 244 330 240 422 226 C526 210 626 188 814 164"/>
<path class="target" d="M126 254 C236 252 338 244 444 228 C558 211 666 190 814 166"/>
<circle cx="314" cy="200" r="7" fill="#d4a72c"/><circle cx="422" cy="226" r="7" fill="#08708b"/><circle cx="444" cy="228" r="7" fill="#4c936c"/>
<text class="label" x="70" y="72" transform="rotate(-90 70 72)">r(t)/r₀</text>
<text class="label" x="690" y="346">normalized time</text>
<text class="tick" x="110" y="338">0</text><text class="tick" x="794" y="338">1</text><text class="tick" x="82" y="96">1.0</text><text class="tick" x="82" y="320">0.6</text>
<g transform="translate(124 374)"><rect x="0" y="-14" width="18" height="5" rx="3" fill="#d4a72c"/><text class="legend" x="28" y="-8">glass-like control</text><rect x="190" y="-14" width="18" height="5" rx="3" fill="#08708b"/><text class="legend" x="218" y="-8">porous condition</text><rect x="390" y="-14" width="18" height="5" rx="3" fill="#4c936c"/><text class="legend" x="418" y="-8">repeatability target</text></g>
<text class="note" x="556" y="78">repeatability band</text>
</svg>